# xmcd CD database file
#
# Track frame offsets:
#	150
#	9538
#	22923
#	39967
#	47043
#	68589
#	89675
#	100754
#	108667
#	127037
#	142755
#	154172
#	182403
#	203896
#	223615
#	226167
#	272001
#	280629
#	299851
#
# Disc length: 4057 seconds
#
# Revision: 1
# Processed by: cddbd v1.5.2PL0 Copyright (c) Steve Scherf et al.
# Submitted via: CDex 1.92
#
DISCID=0b0fd713
DTITLE=Semafor - Benefice
DYEAR=1966
DGENRE=Jazz
TTITLE0=Predstaveni muzikantu
TTITLE1=Toulavi zpevaci (S+S) - J. Suchy, M. Krizkova
TTITLE2=O toulavych zpevacich
TTITLE3=Mame radi zvirata (S+S) - J. Suchy, M. Krizkova
TTITLE4=Cim budu, tim budu rad (S+S) - J. Suchy
TTITLE5=O kabaretu
TTITLE6=V opere (S+S) - Z. Burianova
TTITLE7=Tulak (S+S) - J. Suchy, M. Krizkova
TTITLE8=Kdo vi ... (S+S) - J. Suchy
TTITLE9=Olebce a Hamletovi
TTITLE10=Na rezavym dvojplosniku (S+S) - J.Suchy
TTITLE11=Uvod k Hamletovi - dialog s duchem
TTITLE12=Vrazda krale
TTITLE13=Pisen Hamleta o hvezdach (S+S) - J. Suchy
TTITLE14=Byt ci nebyt
TTITLE15=Dialog hrobniku
TTITLE16=Tragedie kralevice Hanmleta (S+S) - J. Suchy
TTITLE17=O dalsich rolich toulavych zpevaku
TTITLE18=Sadlo na chleba (S+S) - J. Suchy, Z. Burianova
EXTD=YEAR: 1966
EXTT0=
EXTT1=
EXTT2=
EXTT3=
EXTT4=
EXTT5=
EXTT6=
EXTT7=
EXTT8=
EXTT9=
EXTT10=
EXTT11=
EXTT12=
EXTT13=
EXTT14=
EXTT15=
EXTT16=
EXTT17=
EXTT18=
PLAYORDER=
